# xmcd CD database file
#
# Track frame offsets:
#	150
#	18455
#	33972
#	47638
#	66778
#	82015
#	89897
#	107397
#	118753
#	127572
#
# Disc length: 1928 seconds
#
# Revision: 4
# Processed by: cddbd v1.5PL3 Copyright (c) Steve Scherf et al.
# Submitted via: CDex 1.51
#
DISCID=7a07860a
DTITLE=Mishi Donovan - Spirit In Flight
DYEAR=1996
DGENRE=Country
TTITLE0=Chosen One
TTITLE1=Indian Heart
TTITLE2=These Eyes
TTITLE3=No Where To Run
TTITLE4=Nobody's Woman
TTITLE5=Test Of Time
TTITLE6=You Know I'll Be By
TTITLE7=Captive Warrior
TTITLE8=How Does It Feel
TTITLE9=Dream Man
EXTD=YEAR: 1996
EXTT0=
EXTT1=
EXTT2=
EXTT3=
EXTT4=
EXTT5=
EXTT6=
EXTT7=
EXTT8=
EXTT9=
PLAYORDER=
